<svg width="48" height="55" viewBox="0 0 48 55" fill="none" xmlns="http://www.w3.org/2000/svg">
<path d="M43.88 14.9372C42.1192 17.2173 40.1168 19.2934 37.9089 21.128C37.8866 21.1467 37.8684 21.1702 37.8561 21.1968C37.8438 21.2234 37.8373 21.2526 37.8373 21.282V49.7654C37.8373 49.9946 37.7657 50.2178 37.6327 50.4028C37.4998 50.5881 37.3125 50.7254 37.0979 50.7952L37.0751 50.8027C36.916 50.8546 36.7472 50.8674 36.5822 50.8403C36.4173 50.8134 36.2608 50.7469 36.1261 50.6469C35.9911 50.5467 35.8813 50.4156 35.8056 50.2644C35.7298 50.1128 35.6905 49.9454 35.6905 49.7756V23.2202C35.6905 23.1837 35.6808 23.1478 35.6623 23.1166C35.6438 23.0853 35.6171 23.0599 35.5851 23.043C35.5534 23.0261 35.5176 23.0184 35.4818 23.0208C35.446 23.0231 35.4114 23.0354 35.382 23.0563C32.4586 25.1028 29.2715 26.7295 25.911 27.8906C25.8722 27.9038 25.8385 27.9292 25.8144 27.963C25.7906 27.9969 25.7777 28.0375 25.7777 28.0792V51.0832C25.7777 51.2428 25.7428 51.4007 25.6756 51.5448C25.6084 51.6893 25.5106 51.8167 25.3894 51.9181C25.2679 52.0196 25.126 52.0921 24.9736 52.1312C24.8213 52.17 24.6624 52.1742 24.5083 52.1431L24.4666 52.1348C24.2262 52.0864 24.0099 51.9545 23.8546 51.7618C23.6993 51.569 23.6148 51.3276 23.6154 51.0784C23.6209 48.6016 23.6265 45.2669 23.6306 45.2693V28.8619C23.6306 28.8313 23.6237 28.8011 23.6104 28.7736C23.5971 28.7462 23.5777 28.7222 23.5538 28.7036C23.5299 28.685 23.5021 28.6723 23.4726 28.6663C23.443 28.6604 23.4125 28.6614 23.3835 28.6694L23.2863 28.6954C20.5448 29.4278 18.119 31.0626 16.3879 33.3446C14.6568 35.6268 13.7178 38.4274 13.7176 41.3091V45.0873C13.7181 45.2982 13.6577 45.505 13.5439 45.6814C13.4302 45.8581 13.268 45.9968 13.0774 46.0807C12.8869 46.1642 12.6764 46.1896 12.4719 46.1529C12.2675 46.1165 12.078 46.0198 11.9271 45.8748C7.71635 41.7603 5.03903 36.289 4.3512 30.3927C3.66336 24.4966 5.00757 18.5403 8.15484 13.5387C11.3021 8.53702 16.0577 4.79948 21.6115 2.96272C27.1652 1.12597 33.1736 1.30365 38.6131 3.4655C34.3303 1.39564 29.5809 0.528533 24.8573 0.954124C20.1337 1.37971 15.6083 3.08249 11.7503 5.8858C7.89235 8.68915 4.84249 12.4909 2.91708 16.8966C0.991707 21.3024 0.260928 26.1517 0.800595 30.9415C1.34026 35.7309 3.13071 40.2868 5.9862 44.1356C8.84168 47.9848 12.6582 50.9868 17.0397 52.8307C21.4213 54.6742 26.2083 55.2926 30.9041 54.6214C35.6001 53.95 40.0334 52.0133 43.745 49.0125C45.0397 48.1042 46.2476 47.0738 47.3518 45.9347L47.4677 45.8085C47.6506 45.6092 47.7522 45.3466 47.7516 45.0738V9.94098C47.7516 9.94098 47.7516 9.81564 47.7516 9.64943C47.7519 9.605 47.7375 9.56173 47.7111 9.52642C47.6843 9.49115 47.6471 9.46585 47.6048 9.45454C47.5625 9.44323 47.5176 9.44654 47.4774 9.46394C47.4372 9.48133 47.404 9.51183 47.3826 9.55066C46.3615 11.4403 45.19 13.2418 43.88 14.9372Z" fill="url(#paint0_linear_322_32)"/>
<defs>
<linearGradient id="paint0_linear_322_32" x1="0.627947" y1="27.8666" x2="47.7516" y2="27.8666" gradientUnits="userSpaceOnUse">
<stop stop-color="#403BEB"/>
<stop offset="1" stop-color="#22B7A0"/>
</linearGradient>
</defs>
</svg>
